<svg xmlns="http://www.w3.org/2000/svg" viewBox="0 0 512 200" fill="#E30613">
  <!-- A -->
  <path d="M0 199 L82 0 L104 0 L186 199 L146 199 L130 155 L56 155 L40 199 Z M68 124 L118 124 L93 52 Z"/>
  <!-- O -->
  <path d="M258 204 C206 204 168 164 168 102 C168 40 206 0 258 0 C310 0 348 40 348 102 C348 164 310 204 258 204 Z M258 40 C230 40 210 66 210 102 C210 138 230 164 258 164 C286 164 306 138 306 102 C306 66 286 40 258 40 Z"/>
  <!-- N -->
  <path d="M366 199 L366 0 L404 0 L476 140 L476 0 L512 0 L512 199 L476 199 L402 58 L402 199 Z"/>
</svg>
